<svg width="30" height="30" viewBox="0 0 30 30" fill="none" xmlns="http://www.w3.org/2000/svg">
<path d="M27.5 26.5624H25.9375V13.7499C25.9375 10.7249 24.275 9.06243 21.25 9.06243H15.9375V7.52493C16.6625 7.69993 17.3875 7.79993 18.125 7.79993C19.3 7.79993 20.475 7.57493 21.6 7.12493C21.95 6.98743 22.1875 6.63743 22.1875 6.24993V2.49993C22.1875 2.18743 22.0375 1.89993 21.775 1.72493C21.5125 1.54993 21.1875 1.51243 20.9 1.62493C19.1125 2.33743 17.1375 2.33743 15.35 1.62493C15.0625 1.51243 14.7375 1.54993 14.475 1.72493C14.2125 1.89993 14.0625 2.18743 14.0625 2.49993V6.24993V9.06243H8.75C5.725 9.06243 4.0625 10.7249 4.0625 13.7499V26.5624H2.5C1.9875 26.5624 1.5625 26.9874 1.5625 27.4999C1.5625 28.0124 1.9875 28.4374 2.5 28.4374H5H25H27.5C28.0125 28.4374 28.4375 28.0124 28.4375 27.4999C28.4375 26.9874 28.0125 26.5624 27.5 26.5624ZM9.05 26.5624H5.9375V15.9374H9.05V26.5624ZM14.05 26.5624H10.925V15.9374H14.05V26.5624ZM19.05 26.5624H15.925V15.9374H19.05V26.5624ZM24.0625 26.5624H20.925V15.9374H24.0625V26.5624Z" fill="#E30A17"/>
</svg>
