<svg width="30" height="30" viewBox="0 0 30 30" fill="none" xmlns="http://www.w3.org/2000/svg">
<path d="M14.0625 22.8125H11.25C9.875 22.8125 8.75 23.9375 8.75 25.3125V25.625H7.5C6.9875 25.625 6.5625 26.05 6.5625 26.5625C6.5625 27.075 6.9875 27.5 7.5 27.5H22.5C23.0125 27.5 23.4375 27.075 23.4375 26.5625C23.4375 26.05 23.0125 25.625 22.5 25.625H21.25V25.3125C21.25 23.9375 20.125 22.8125 18.75 22.8125H15.9375V19.95C15.625 19.9875 15.3125 20 15 20C14.6875 20 14.375 19.9875 14.0625 19.95V22.8125Z" fill="#E30A17"/>
<path d="M23.1016 14.55C23.9266 14.2375 24.6516 13.725 25.2266 13.15C26.3891 11.8625 27.1516 10.325 27.1516 8.525C27.1516 6.725 25.7391 5.3125 23.9391 5.3125H23.2391C22.4266 3.65 20.7266 2.5 18.7516 2.5H11.2516C9.27656 2.5 7.57656 3.65 6.76406 5.3125H6.06406C4.26406 5.3125 2.85156 6.725 2.85156 8.525C2.85156 10.325 3.61406 11.8625 4.77656 13.15C5.35156 13.725 6.07656 14.2375 6.90156 14.55C8.20156 17.75 11.3266 20 15.0016 20C18.6766 20 21.8016 17.75 23.1016 14.55ZM18.5516 10.5625L17.7766 11.5125C17.6516 11.65 17.5641 11.925 17.5766 12.1125L17.6516 13.3375C17.7016 14.0875 17.1641 14.475 16.4641 14.2L15.3266 13.75C15.1516 13.6875 14.8516 13.6875 14.6766 13.75L13.5391 14.2C12.8391 14.475 12.3016 14.0875 12.3516 13.3375L12.4266 12.1125C12.4391 11.925 12.3516 11.65 12.2266 11.5125L11.4516 10.5625C10.9641 9.9875 11.1766 9.35 11.9016 9.1625L13.0891 8.8625C13.2766 8.8125 13.5016 8.6375 13.6016 8.475L14.2641 7.45C14.6766 6.8125 15.3266 6.8125 15.7391 7.45L16.4016 8.475C16.5016 8.6375 16.7266 8.8125 16.9141 8.8625L18.1016 9.1625C18.8266 9.35 19.0391 9.9875 18.5516 10.5625Z" fill="#E30A17"/>
</svg>
