<svg width="99" height="71" viewBox="0 0 99 71" fill="none" xmlns="http://www.w3.org/2000/svg">
<path d="M0.898343 34V0.784262H22.8908V6.57431H7.92101V14.489H21.4311V20.279H7.92101V34H0.898343ZM34.6371 0.784262V34H27.6145V0.784262H34.6371ZM40.415 34V0.784262H47.4377V15.4297H47.8756L59.8287 0.784262H68.2462L55.92 15.6567L68.3921 34H59.9909L50.8922 20.3439L47.4377 24.5608V34H40.415ZM71.9035 34V0.784262H85.0081C87.5166 0.784262 89.6575 1.23298 91.4307 2.13041C93.2147 3.01703 94.5717 4.27667 95.5016 5.90935C96.4422 7.53121 96.9126 9.4396 96.9126 11.6345C96.9126 13.8403 96.4368 15.7378 95.4853 17.3273C94.5339 18.9059 93.1553 20.1169 91.3496 20.9602C89.5547 21.8036 87.3814 22.2253 84.8297 22.2253H76.0554V16.5812H83.6944C85.0351 16.5812 86.1488 16.3974 87.0354 16.0298C87.9221 15.6621 88.5816 15.1107 89.0141 14.3755C89.4574 13.6402 89.6791 12.7266 89.6791 11.6345C89.6791 10.5317 89.4574 9.60179 89.0141 8.84492C88.5816 8.08805 87.9167 7.51499 87.0192 7.12574C86.1326 6.72568 85.0135 6.52565 83.662 6.52565H78.9261V34H71.9035ZM89.8413 18.8842L98.0965 34H90.344L82.2672 18.8842H89.8413ZM5.21209 65.3503C4.26492 65.3503 3.40534 65.1719 2.63333 64.8151C1.86132 64.4518 1.24826 63.9296 0.794137 63.2484C0.340016 62.5607 0.112955 61.7303 0.112955 60.7572C0.112955 59.9009 0.281629 59.2067 0.618976 58.6747C0.956324 58.1363 1.4072 57.7146 1.97161 57.4097C2.53602 57.1048 3.15881 56.8777 3.83999 56.7285C4.52766 56.5728 5.21858 56.4495 5.91273 56.3587C6.82098 56.2419 7.5573 56.1544 8.12171 56.096C8.69261 56.0311 9.1078 55.9241 9.3673 55.7748C9.63329 55.6256 9.76628 55.3661 9.76628 54.9964V54.9185C9.76628 53.9584 9.50354 53.2123 8.97805 52.6803C8.45906 52.1484 7.67083 51.8824 6.61338 51.8824C5.517 51.8824 4.65741 52.1224 4.03462 52.6025C3.41182 53.0826 2.97392 53.5951 2.72091 54.14L0.541127 53.3615C0.930374 52.4533 1.44937 51.7461 2.09811 51.2401C2.75335 50.7276 3.46697 50.3708 4.23897 50.1697C5.01747 49.9621 5.78299 49.8583 6.53553 49.8583C7.0156 49.8583 7.56703 49.9167 8.18983 50.0335C8.81911 50.1437 9.42569 50.374 10.0096 50.7244C10.5999 51.0747 11.0897 51.6034 11.479 52.3105C11.8682 53.0177 12.0628 53.9648 12.0628 55.1521V65H9.76628V62.9759H9.64951C9.49381 63.3003 9.23431 63.6474 8.87101 64.0172C8.50771 64.3869 8.0244 64.7016 7.42107 64.9611C6.81773 65.2206 6.08141 65.3503 5.21209 65.3503ZM5.56241 63.2873C6.47066 63.2873 7.23617 63.1089 7.85897 62.7521C8.48825 62.3953 8.96184 61.9347 9.27972 61.3703C9.60409 60.8059 9.76628 60.2123 9.76628 59.5895V57.4875C9.66897 57.6043 9.45488 57.7114 9.12402 57.8087C8.79965 57.8995 8.42338 57.9806 7.99521 58.0519C7.57352 58.1168 7.16157 58.1752 6.75935 58.2271C6.36361 58.2725 6.04248 58.3114 5.79596 58.3439C5.19912 58.4217 4.64119 58.5482 4.1222 58.7234C3.60969 58.8921 3.19449 59.1483 2.87661 59.4922C2.56521 59.8295 2.40951 60.2901 2.40951 60.874C2.40951 61.6719 2.70469 62.2753 3.29505 62.684C3.89189 63.0862 4.64768 63.2873 5.56241 63.2873ZM22.755 50.0529V51.9992H15.009V50.0529H22.755ZM17.2666 46.4718H19.5631V60.7183C19.5631 61.367 19.6572 61.8536 19.8453 62.178C20.04 62.4958 20.2865 62.7099 20.5849 62.8202C20.8898 62.924 21.211 62.9759 21.5483 62.9759C21.8013 62.9759 22.0089 62.9629 22.1711 62.937C22.3333 62.9046 22.463 62.8786 22.5603 62.8591L23.0274 64.9222C22.8717 64.9805 22.6544 65.0389 22.3754 65.0973C22.0965 65.1622 21.7429 65.1946 21.3148 65.1946C20.666 65.1946 20.0302 65.0551 19.4074 64.7762C18.7911 64.4972 18.2786 64.0723 17.8699 63.5014C17.4677 62.9305 17.2666 62.2104 17.2666 61.3411V46.4718ZM32.1212 65.3114C30.7718 65.3114 29.5879 64.9903 28.5693 64.348C27.5573 63.7058 26.7658 62.8072 26.1949 61.6525C25.6305 60.4977 25.3483 59.1483 25.3483 57.6043C25.3483 56.0473 25.6305 54.6882 26.1949 53.5269C26.7658 52.3657 27.5573 51.4639 28.5693 50.8217C29.5879 50.1794 30.7718 49.8583 32.1212 49.8583C33.4706 49.8583 34.6513 50.1794 35.6634 50.8217C36.6819 51.4639 37.4734 52.3657 38.0378 53.5269C38.6087 54.6882 38.8941 56.0473 38.8941 57.6043C38.8941 59.1483 38.6087 60.4977 38.0378 61.6525C37.4734 62.8072 36.6819 63.7058 35.6634 64.348C34.6513 64.9903 33.4706 65.3114 32.1212 65.3114ZM32.1212 63.2484C33.1462 63.2484 33.9896 62.9856 34.6513 62.4602C35.313 61.9347 35.8028 61.2438 36.1207 60.3874C36.4386 59.5311 36.5976 58.6034 36.5976 57.6043C36.5976 56.6052 36.4386 55.6743 36.1207 54.8115C35.8028 53.9486 35.313 53.2512 34.6513 52.7193C33.9896 52.1873 33.1462 51.9213 32.1212 51.9213C31.0962 51.9213 30.2528 52.1873 29.5911 52.7193C28.9294 53.2512 28.4396 53.9486 28.1217 54.8115C27.8038 55.6743 27.6449 56.6052 27.6449 57.6043C27.6449 58.6034 27.8038 59.5311 28.1217 60.3874C28.4396 61.2438 28.9294 61.9347 29.5911 62.4602C30.2528 62.9856 31.0962 63.2484 32.1212 63.2484ZM44.6963 45.0706V65H42.3998V45.0706H44.6963ZM50.3818 70.6052C49.9925 70.6052 49.6454 70.5727 49.3405 70.5078C49.0356 70.4495 48.8248 70.3911 48.708 70.3327L49.2919 68.3086C49.8498 68.4513 50.3428 68.5032 50.771 68.4643C51.1992 68.4254 51.5787 68.234 51.9096 67.8902C52.2469 67.5528 52.5551 67.0046 52.834 66.2456L53.2622 65.0778L47.7349 50.0529H50.2261L54.3521 61.9639H54.5078L58.6338 50.0529H61.125L54.7803 67.1798C54.4948 67.9518 54.1412 68.5908 53.7196 69.0968C53.2979 69.6093 52.8081 69.9888 52.2502 70.2354C51.6987 70.4819 51.0759 70.6052 50.3818 70.6052ZM69.8879 65.3114C68.4477 65.3114 67.2053 64.9935 66.1609 64.3577C65.1229 63.7155 64.3217 62.8202 63.7573 61.6719C63.1993 60.5172 62.9204 59.1743 62.9204 57.6432C62.9204 56.1122 63.1993 54.7628 63.7573 53.5951C64.3217 52.4208 65.1067 51.5061 66.1122 50.8509C67.1242 50.1892 68.305 49.8583 69.6544 49.8583C70.4328 49.8583 71.2016 49.988 71.9606 50.2475C72.7197 50.507 73.4106 50.9287 74.0334 51.5126C74.6562 52.09 75.1525 52.8555 75.5223 53.8092C75.892 54.7628 76.0769 55.937 76.0769 57.3318V58.305H64.5552V56.3198H73.7414C73.7414 55.4764 73.5728 54.7239 73.2354 54.0622C72.9046 53.4004 72.431 52.8782 71.8147 52.4954C71.2049 52.1127 70.4847 51.9213 69.6544 51.9213C68.7396 51.9213 67.9482 52.1484 67.2799 52.6025C66.6182 53.0501 66.109 53.634 65.7522 54.3541C65.3953 55.0742 65.2169 55.8462 65.2169 56.6701V57.9936C65.2169 59.1224 65.4116 60.0793 65.8008 60.8643C66.1965 61.6427 66.7447 62.2363 67.4454 62.6451C68.146 63.0473 68.9602 63.2484 69.8879 63.2484C70.4912 63.2484 71.0362 63.1641 71.5227 62.9954C72.0158 62.8202 72.4407 62.5607 72.7975 62.2169C73.1543 61.8666 73.43 61.4319 73.6247 60.9129L75.8434 61.5357C75.6098 62.2882 75.2173 62.95 74.6659 63.5209C74.1145 64.0853 73.4333 64.5264 72.6224 64.8443C71.8114 65.1557 70.8999 65.3114 69.8879 65.3114ZM90.1579 53.4004L88.0949 53.9843C87.9652 53.6405 87.7738 53.3064 87.5208 52.982C87.2743 52.6511 86.9369 52.3787 86.5088 52.1646C86.0806 51.9505 85.5324 51.8435 84.8642 51.8435C83.9495 51.8435 83.1872 52.0543 82.5774 52.476C81.974 52.8912 81.6724 53.4199 81.6724 54.0622C81.6724 54.6331 81.88 55.0839 82.2952 55.4148C82.7103 55.7457 83.3591 56.0214 84.2414 56.2419L86.4601 56.7869C87.7965 57.1113 88.7923 57.6076 89.4476 58.2758C90.1028 58.9375 90.4304 59.7906 90.4304 60.8351C90.4304 61.6914 90.1839 62.4569 89.6908 63.1316C89.2043 63.8063 88.5231 64.3383 87.6473 64.7275C86.7715 65.1168 85.753 65.3114 84.5917 65.3114C83.0672 65.3114 81.8054 64.9805 80.8063 64.3188C79.8072 63.6571 79.1747 62.6905 78.9087 61.4189L81.0885 60.874C81.2961 61.6784 81.6886 62.2818 82.266 62.684C82.8498 63.0862 83.6121 63.2873 84.5528 63.2873C85.6232 63.2873 86.4731 63.0603 87.1024 62.6061C87.7381 62.1455 88.056 61.5941 88.056 60.9518C88.056 60.4328 87.8744 59.9982 87.5111 59.6479C87.1478 59.291 86.5898 59.0251 85.8373 58.8499L83.3461 58.266C81.9773 57.9417 80.9717 57.4389 80.3295 56.7577C79.6937 56.07 79.3758 55.2104 79.3758 54.1789C79.3758 53.3356 79.6126 52.5895 80.0862 51.9408C80.5662 51.292 81.2182 50.7828 82.0421 50.413C82.8725 50.0432 83.8132 49.8583 84.8642 49.8583C86.3433 49.8583 87.5046 50.1827 88.3479 50.8314C89.1978 51.4802 89.8011 52.3365 90.1579 53.4004ZM93.8874 65V50.0529H96.184V65H93.8874ZM95.0552 47.5617C94.6075 47.5617 94.2215 47.4093 93.8971 47.1044C93.5793 46.7995 93.4203 46.4329 93.4203 46.0047C93.4203 45.5766 93.5793 45.21 93.8971 44.9051C94.2215 44.6002 94.6075 44.4478 95.0552 44.4478C95.5028 44.4478 95.8855 44.6002 96.2034 44.9051C96.5278 45.21 96.69 45.5766 96.69 46.0047C96.69 46.4329 96.5278 46.7995 96.2034 47.1044C95.8855 47.4093 95.5028 47.5617 95.0552 47.5617Z" fill="#E30A17"/>
</svg>
