<svg width="18" height="18" viewBox="0 0 18 18" fill="none" xmlns="http://www.w3.org/2000/svg">
<path d="M13.1475 5.8275C13.095 5.82 13.0425 5.82 12.99 5.8275C11.8275 5.79 10.905 4.8375 10.905 3.6675C10.905 2.475 11.8725 1.5 13.0725 1.5C14.265 1.5 15.24 2.4675 15.24 3.6675C15.2325 4.8375 14.31 5.79 13.1475 5.8275Z" fill="#9092A3"/>
<path d="M15.5925 11.025C14.7525 11.5875 13.575 11.7975 12.4875 11.655C12.7725 11.04 12.9225 10.3575 12.93 9.6375C12.93 8.8875 12.765 8.175 12.45 7.5525C13.56 7.4025 14.7375 7.6125 15.585 8.175C16.77 8.955 16.77 10.2375 15.5925 11.025Z" fill="#9092A3"/>
<path d="M4.83 5.8275C4.8825 5.82 4.935 5.82 4.9875 5.8275C6.15 5.79 7.0725 4.8375 7.0725 3.6675C7.0725 2.4675 6.105 1.5 4.90499 1.5C3.71249 1.5 2.745 2.4675 2.745 3.6675C2.745 4.8375 3.6675 5.79 4.83 5.8275Z" fill="#9092A3"/>
<path d="M4.91247 9.6375C4.91247 10.365 5.06997 11.055 5.35497 11.6775C4.29747 11.79 3.19497 11.565 2.38497 11.0325C1.19997 10.245 1.19997 8.9625 2.38497 8.175C3.18747 7.635 4.31997 7.4175 5.38497 7.5375C5.07747 8.1675 4.91247 8.88 4.91247 9.6375Z" fill="#9092A3"/>
<path d="M9.08998 11.9025C9.02998 11.895 8.96248 11.895 8.89498 11.9025C7.51498 11.8575 6.41248 10.725 6.41248 9.33C6.41998 7.905 7.56748 6.75 8.99998 6.75C10.425 6.75 11.58 7.905 11.58 9.33C11.5725 10.725 10.4775 11.8575 9.08998 11.9025Z" fill="#9092A3"/>
<path d="M6.65248 13.455C5.51998 14.2125 5.51998 15.4575 6.65248 16.2075C7.94248 17.07 10.0575 17.07 11.3475 16.2075C12.48 15.45 12.48 14.205 11.3475 13.455C10.065 12.5925 7.94998 12.5925 6.65248 13.455Z" fill="#9092A3"/>
</svg>
