<svg width="30" height="30" viewBox="0 0 30 30" fill="none" xmlns="http://www.w3.org/2000/svg">
<path d="M22.9258 17.6625L20.2008 15.475C19.8133 15.175 19.3258 15 18.8258 15H15.9383V11.25H21.5258C22.7383 11.25 23.7133 10.275 23.7133 9.0625V4.6875C23.7133 3.475 22.7383 2.5 21.5258 2.5H11.2008C10.7133 2.5 10.2258 2.675 9.83828 2.975L7.10078 5.1625C6.01328 6.0375 6.01328 7.7125 7.10078 8.5875L9.83828 10.775C10.2258 11.075 10.7133 11.25 11.2008 11.25H14.0633V15H8.50078C7.28828 15 6.31328 15.975 6.31328 17.1875V21.5625C6.31328 22.775 7.28828 23.75 8.50078 23.75H14.0633V26.5625H11.2508C10.7383 26.5625 10.3133 26.9875 10.3133 27.5C10.3133 28.0125 10.7383 28.4375 11.2508 28.4375H18.7508C19.2633 28.4375 19.6883 28.0125 19.6883 27.5C19.6883 26.9875 19.2633 26.5625 18.7508 26.5625H15.9383V23.75H18.8258C19.3258 23.75 19.8133 23.575 20.2008 23.275L22.9258 21.0875C24.0258 20.2125 24.0258 18.5375 22.9258 17.6625Z" fill="#E30A17"/>
</svg>
