<svg width="18" height="18" viewBox="0 0 18 18" fill="none" xmlns="http://www.w3.org/2000/svg">
<g clip-path="url(#clip0_191_139)">
<path d="M0.424969 6.26089C0.149273 7.12461 -3.515e-05 8.04476 6.207e-09 8.99992C-3.515e-05 9.95511 0.149309 10.8753 0.425004 11.739L9 12.1304L17.575 11.7391C17.8507 10.8754 18 9.95511 18 8.99999C18 8.04479 17.8507 7.12461 17.575 6.26086L9 5.86957L0.424969 6.26089Z" fill="#F0F0F0"/>
<path d="M17.5749 6.26092L8.99991 5.86963L0.424875 6.26092C0.343172 6.517 0.272824 6.7781 0.213867 7.04353H17.7858C17.7269 6.77807 17.6566 6.51693 17.5749 6.26092Z" fill="#D80027"/>
<path d="M0.213989 10.9565C0.272876 11.2219 0.343224 11.483 0.424927 11.7391L0.425771 11.7391L8.99989 12.1304L17.5749 11.7391C17.6566 11.483 17.7269 11.2219 17.7859 10.9565H0.213989Z" fill="#D80027"/>
<path d="M9.00001 17.9999C13.0154 17.9999 16.4161 15.3702 17.575 11.7391H0.425049C1.58397 15.3701 4.98471 17.9999 9.00001 17.9999Z" fill="#6DA544"/>
<path d="M8.99992 6.10355e-05C4.98459 9.61918e-05 1.58392 2.62989 0.424927 6.26093L17.5749 6.26097C16.416 2.62985 13.0153 2.58793e-05 8.99992 6.10355e-05Z" fill="#338AF3"/>
<path d="M4.11282 3.7175C4.11282 2.87456 4.70524 2.17038 5.49636 1.99762C5.37479 1.97104 5.24861 1.95667 5.11903 1.95667C4.14653 1.95667 3.35815 2.74501 3.35815 3.71754C3.35815 4.69006 4.14646 5.47841 5.11903 5.47841C5.24861 5.47841 5.37475 5.46399 5.49636 5.43745C4.70527 5.26462 4.11282 4.56044 4.11282 3.7175Z" fill="#F0F0F0"/>
<path d="M6.53709 4.51782L6.65627 4.88468H7.042L6.72996 5.11144L6.84914 5.47829L6.53709 5.25157L6.22497 5.47829L6.34419 5.11144L6.0321 4.88468H6.41784L6.53709 4.51782Z" fill="#F0F0F0"/>
<path d="M7.76834 4.51782L7.88756 4.88468H8.27329L7.96121 5.11144L8.08042 5.47829L7.76834 5.25157L7.45626 5.47829L7.57547 5.11144L7.26343 4.88468H7.64913L7.76834 4.51782Z" fill="#F0F0F0"/>
<path d="M8.99949 4.51782L9.11867 4.88468H9.50444L9.19236 5.11144L9.31154 5.47829L8.99949 5.25157L8.68737 5.47829L8.80662 5.11144L8.49451 4.88468H8.88028L8.99949 4.51782Z" fill="#F0F0F0"/>
<path d="M10.2307 4.51782L10.3499 4.88468H10.7356L10.4236 5.11144L10.5428 5.47829L10.2307 5.25157L9.91857 5.47829L10.0378 5.11144L9.72571 4.88468H10.1114L10.2307 4.51782Z" fill="#F0F0F0"/>
<path d="M11.4618 4.51782L11.581 4.88468H11.9668L11.6547 5.11144L11.7739 5.47829L11.4618 5.25157L11.1497 5.47829L11.269 5.11144L10.9569 4.88468H11.3426L11.4618 4.51782Z" fill="#F0F0F0"/>
<path d="M7.76834 3.23724L7.88756 3.60406H8.27329L7.96121 3.83086L8.08042 4.19768L7.76834 3.97095L7.45626 4.19768L7.57547 3.83086L7.26343 3.60406H7.64913L7.76834 3.23724Z" fill="#F0F0F0"/>
<path d="M8.99949 3.23724L9.11867 3.60406H9.50444L9.19236 3.83086L9.31154 4.19768L8.99949 3.97095L8.68737 4.19768L8.80662 3.83086L8.49451 3.60406H8.88028L8.99949 3.23724Z" fill="#F0F0F0"/>
<path d="M10.2307 3.23724L10.3499 3.60406H10.7356L10.4236 3.83086L10.5428 4.19768L10.2307 3.97095L9.91857 4.19768L10.0378 3.83086L9.72571 3.60406H10.1114L10.2307 3.23724Z" fill="#F0F0F0"/>
<path d="M11.4618 3.23724L11.581 3.60406H11.9668L11.6547 3.83086L11.7739 4.19768L11.4618 3.97095L11.1497 4.19768L11.269 3.83086L10.9569 3.60406H11.3426L11.4618 3.23724Z" fill="#F0F0F0"/>
<path d="M8.99949 1.95654L9.11867 2.32343H9.50444L9.19236 2.55016L9.31154 2.91705L8.99949 2.69032L8.68737 2.91705L8.80662 2.55016L8.49451 2.32343H8.88028L8.99949 1.95654Z" fill="#F0F0F0"/>
<path d="M10.2307 1.95654L10.3499 2.32343H10.7356L10.4236 2.55016L10.5428 2.91705L10.2307 2.69032L9.91857 2.91705L10.0378 2.55016L9.72571 2.32343H10.1114L10.2307 1.95654Z" fill="#F0F0F0"/>
<path d="M11.4618 1.95654L11.581 2.32343H11.9668L11.6547 2.55016L11.7739 2.91705L11.4618 2.69032L11.1497 2.91705L11.269 2.55016L10.9569 2.32343H11.3426L11.4618 1.95654Z" fill="#F0F0F0"/>
</g>
<defs>
<clipPath id="clip0_191_139">
<rect width="18" height="18" fill="white"/>
</clipPath>
</defs>
</svg>
