<svg width="18" height="18" viewBox="0 0 18 18" fill="none" xmlns="http://www.w3.org/2000/svg">
<path d="M11.0475 1.5H6.95251V4.77H11.0475V1.5Z" fill="#9092A3"/>
<path d="M12.1725 1.5V4.77H16.4025C16.02 2.7075 14.4975 1.5075 12.1725 1.5Z" fill="#9092A3"/>
<path d="M1.5 5.895V12.1425C1.5 14.8725 3.1275 16.5 5.8575 16.5H12.1425C14.8725 16.5 16.5 14.8725 16.5 12.1425V5.895H1.5ZM10.83 12.135L9.27 13.035C8.94 13.2225 8.6175 13.32 8.3175 13.32C8.0925 13.32 7.89 13.2675 7.7025 13.1625C7.2675 12.915 7.0275 12.405 7.0275 11.745V9.945C7.0275 9.285 7.2675 8.775 7.7025 8.5275C8.1375 8.2725 8.6925 8.3175 9.27 8.655L10.83 9.555C11.4075 9.885 11.7225 10.35 11.7225 10.8525C11.7225 11.355 11.4 11.7975 10.83 12.135Z" fill="#9092A3"/>
<path d="M5.82753 1.5C3.50253 1.5075 1.98003 2.7075 1.59753 4.77H5.82753V1.5Z" fill="#9092A3"/>
</svg>
